<?xml version="1.0" standalone="no"?>
<!DOCTYPE svg PUBLIC "-//W3C//DTD SVG 20010904//EN"
 "http://www.w3.org/TR/2001/REC-SVG-20010904/DTD/svg10.dtd">
<svg version="1.0" xmlns="http://www.w3.org/2000/svg"
 width="371.000000pt" height="371.000000pt" viewBox="0 0 371.000000 371.000000"
 preserveAspectRatio="xMidYMid meet">

<g transform="translate(0.000000,371.000000) scale(0.100000,-0.100000)"
fill="#000000" stroke="none">
<path d="M1835 3688 c-6 -30 -152 -781 -161 -830 -3 -21 -8 -38 -11 -38 -2 0
-28 18 -58 41 -72 54 -113 122 -131 217 -22 116 -51 170 -125 233 -35 30 -84
76 -110 103 -31 33 -48 44 -51 35 -8 -24 11 -91 48 -172 44 -95 49 -155 22
-263 -25 -103 -19 -180 22 -270 16 -37 30 -68 30 -70 0 -5 -122 76 -455 300
-154 104 -289 191 -299 194 -15 4 -18 1 -14 -14 3 -11 108 -172 234 -359 298
-442 269 -392 233 -400 -17 -4 -61 -7 -98 -7 -74 -1 -120 17 -231 88 -30 19
-72 39 -93 45 -43 11 -327 1 -327 -12 0 -15 64 -52 147 -85 47 -19 100 -45
117 -58 31 -23 43 -39 118 -157 42 -65 102 -108 185 -134 77 -23 83 -31 31
-39 -40 -6 -784 -150 -836 -161 -29 -7 -29 -33 0 -40 24 -5 334 -65 673 -131
105 -20 192 -38 194 -40 2 -1 -18 -30 -43 -62 -56 -71 -118 -107 -218 -128
-112 -23 -167 -53 -224 -120 -27 -32 -70 -79 -96 -104 -27 -26 -48 -50 -48
-54 0 -18 90 3 170 39 100 45 164 51 271 23 97 -25 174 -19 263 21 37 17 69
31 72 31 3 0 -106 -165 -242 -367 -136 -203 -249 -376 -252 -385 -2 -10 1 -18
8 -18 7 0 135 82 284 182 516 347 470 319 479 295 5 -12 9 -56 9 -97 2 -82
-14 -125 -88 -240 -19 -30 -39 -71 -44 -92 -12 -42 -4 -322 9 -326 14 -5 59
71 92 157 37 98 79 146 181 205 93 54 150 131 173 234 10 47 22 47 29 -1 6
-39 150 -784 161 -834 3 -13 12 -23 20 -23 8 0 17 10 19 23 8 35 91 462 132
672 20 105 38 192 40 194 1 2 28 -16 59 -40 74 -58 113 -122 131 -217 22 -116
51 -170 125 -233 35 -30 82 -73 104 -96 23 -24 45 -43 49 -43 18 0 -4 99 -40
173 -45 95 -50 160 -22 267 25 98 19 176 -22 266 -16 37 -30 68 -30 70 0 5
122 -76 455 -300 154 -104 289 -191 299 -194 15 -4 18 -1 14 14 -4 15 -218
339 -469 709 -32 47 -29 50 55 58 79 8 142 -7 207 -48 149 -94 135 -90 319
-88 95 1 166 6 168 11 5 16 -55 53 -145 88 -47 19 -100 45 -117 58 -31 23 -43
40 -118 156 -41 65 -91 102 -174 131 -32 11 -66 22 -74 26 -16 6 28 15 535
113 171 33 320 63 333 65 12 3 22 12 22 20 0 8 -10 17 -22 20 -30 6 -781 152
-830 161 -21 3 -38 8 -38 11 0 2 18 28 40 57 61 81 122 116 234 135 95 17 156
51 212 117 27 32 70 79 97 105 26 26 47 50 47 54 0 18 -101 -6 -173 -41 -95
-45 -160 -50 -269 -22 -97 26 -179 19 -266 -22 -36 -17 -66 -29 -68 -28 -2 3
17 33 304 458 102 151 187 283 190 293 2 9 -1 17 -9 17 -7 0 -180 -113 -385
-250 -342 -230 -374 -249 -378 -228 -23 112 -12 189 39 269 94 150 90 135 88
323 -1 92 -4 170 -6 173 -11 10 -61 -72 -92 -151 -19 -47 -44 -100 -56 -117
-12 -17 -65 -59 -118 -93 -106 -69 -140 -108 -172 -202 -11 -32 -22 -66 -26
-74 -6 -16 -14 21 -113 535 -34 171 -63 320 -66 333 -2 12 -11 22 -19 22 -8 0
-17 -10 -20 -22z m5 -586 l-2 -398 -74 -10 c-42 -5 -77 -8 -78 -7 -2 2 12 79
30 171 18 92 52 274 76 404 24 131 44 238 46 238 1 0 2 -179 2 -398z m86 118
c25 -135 48 -256 50 -270 3 -14 15 -77 28 -140 13 -63 22 -118 20 -121 -2 -4
-21 -3 -41 2 -21 5 -55 9 -75 9 l-38 0 1 398 c1 218 3 390 5 382 2 -8 24 -125
50 -260z m-567 31 c41 -51 57 -92 72 -177 21 -122 57 -177 178 -272 l24 -18
-64 -22 -64 -21 -33 37 c-67 76 -84 123 -87 251 -4 130 -19 185 -67 245 -23
29 -26 36 -10 27 11 -6 34 -28 51 -50z m-32 -39 c25 -51 27 -66 28 -181 1
-139 13 -179 74 -255 17 -21 31 -42 31 -45 0 -3 -22 -18 -48 -33 l-49 -26 -32
65 c-50 101 -55 147 -30 266 25 118 21 183 -12 248 -16 32 -18 40 -6 30 9 -7
29 -38 44 -69z m1128 26 c-11 -67 -53 -134 -121 -194 -73 -64 -119 -147 -129
-234 -4 -30 -8 -56 -10 -58 -4 -5 -88 20 -98 28 -14 12 42 154 75 195 17 20
68 61 114 90 88 57 136 112 156 177 15 50 21 48 13 -4z m25 -103 c-6 -22 -31
-69 -54 -105 -80 -121 -81 -123 -80 -246 l1 -111 -57 29 -58 30 5 52 c8 100
30 145 115 233 81 85 111 136 125 213 l8 45 3 -50 c2 -27 -2 -68 -8 -90z m465
-173 c-39 -38 -168 -164 -287 -281 l-217 -213 -60 47 -61 48 29 21 c16 12 165
113 331 225 166 113 303 208 306 213 3 4 11 8 17 8 7 0 -20 -31 -58 -68z
m-1893 -168 c183 -125 334 -227 335 -228 1 -1 -25 -23 -58 -50 l-60 -49 -202
198 c-111 109 -238 234 -282 277 -44 43 -77 78 -73 78 4 0 157 -102 340 -226z
m1925 134 c-35 -51 -142 -208 -237 -348 -95 -140 -174 -256 -175 -258 -1 -1
-23 25 -49 58 l-48 60 283 290 c155 160 284 290 286 290 2 0 -25 -42 -60 -92z
m-1933 -285 l198 -202 -47 -60 c-27 -34 -49 -60 -50 -59 -1 2 -76 111 -165
243 -90 132 -192 281 -227 332 -34 51 -63 96 -63 100 0 4 35 -28 78 -72 43
-44 167 -171 276 -282z m602 75 c-3 -13 -6 -28 -6 -34 0 -7 -12 -15 -27 -18
-16 -4 -63 -23 -105 -43 -76 -35 -78 -36 -104 -18 -27 17 -27 18 -8 32 36 28
211 100 248 102 4 1 6 -9 2 -21z m534 -15 c102 -40 153 -73 139 -89 -21 -25
-46 -24 -105 5 -32 16 -78 35 -101 42 -30 8 -43 18 -43 30 0 9 -3 25 -7 35 -5
15 -2 16 23 10 16 -4 58 -19 94 -33z m-142 -69 c37 -9 114 -39 172 -66 95 -46
114 -60 206 -152 114 -115 165 -200 208 -350 37 -126 37 -296 0 -422 -43 -150
-94 -235 -208 -350 -84 -84 -116 -108 -193 -148 -127 -65 -220 -87 -363 -87
-133 -1 -218 17 -328 67 -168 76 -312 215 -396 381 -52 104 -77 216 -77 349 0
122 6 162 42 266 39 113 90 189 194 294 111 111 204 168 345 210 96 29 294 33
398 8z m-1444 -159 c20 -9 66 -36 102 -60 90 -62 154 -79 260 -70 l84 7 -31
-59 -31 -58 -46 3 c-104 6 -149 28 -236 111 -94 90 -127 110 -211 127 l-60 12
66 1 c39 1 82 -5 103 -14z m-41 -47 c23 -11 75 -54 115 -95 81 -83 143 -117
235 -128 31 -3 57 -9 57 -12 0 -13 -24 -89 -30 -96 -12 -14 -154 42 -195 75
-20 17 -61 68 -90 113 -57 89 -97 126 -172 156 l-48 20 43 -6 c24 -3 63 -15
85 -27z m2727 -3 c-7 -8 -37 -27 -68 -42 -52 -25 -66 -27 -181 -28 -139 -1
-177 -12 -262 -79 l-41 -34 -28 52 -27 51 78 38 c92 46 153 51 267 23 88 -22
171 -18 228 12 47 26 50 26 34 7z m21 -24 c-14 -26 -82 -78 -123 -96 -19 -7
-66 -19 -104 -26 -120 -20 -180 -58 -265 -167 l-26 -34 -21 64 -21 63 42 37
c77 67 117 81 242 83 127 3 193 20 246 65 41 35 43 36 30 11z m-2181 -122 c0
-4 -13 -33 -29 -65 -16 -33 -35 -78 -42 -101 -6 -24 -17 -43 -23 -43 -6 0 -21
-3 -34 -6 -21 -6 -22 -4 -16 22 10 45 63 175 86 213 l21 33 18 -23 c10 -13 19
-27 19 -30z m1553 -34 c33 -66 71 -174 64 -182 -2 -2 -18 0 -35 3 -22 4 -32
13 -37 32 -3 14 -22 60 -42 103 -34 75 -34 78 -17 103 20 32 23 30 67 -59z
m-1654 -262 c-5 -21 -9 -55 -9 -75 l0 -37 -402 0 -403 0 180 34 c99 19 281 54
405 78 124 24 228 42 231 40 4 -1 3 -20 -2 -40z m2346 -86 l130 -25 -366 -1
c-202 -1 -380 2 -396 5 -28 6 -30 9 -39 75 -5 39 -8 71 -7 73 3 2 219 -38 678
-127z m-2355 -94 c0 -21 4 -55 9 -75 5 -20 7 -39 5 -41 -2 -2 -57 7 -122 19
-64 13 -128 25 -142 28 -53 9 -516 96 -530 100 -8 2 164 4 383 5 l397 1 0 -37z
m2470 31 c-14 -3 -473 -90 -530 -100 -14 -3 -78 -15 -142 -28 -65 -12 -119
-22 -121 -20 -1 1 2 37 7 78 l10 75 395 0 c218 -1 389 -3 381 -5z m-2454 -194
c6 0 17 -19 24 -42 7 -24 26 -71 42 -104 29 -60 29 -62 13 -88 -9 -14 -21 -24
-25 -21 -20 12 -110 228 -110 263 0 2 10 2 23 -2 12 -3 27 -6 33 -6z m1714 7
c0 -21 -41 -129 -72 -191 l-40 -80 -19 25 c-10 13 -19 27 -19 30 0 3 15 40 34
80 19 41 37 86 41 101 6 25 19 32 63 37 6 0 12 0 12 -2z m-1791 -82 l20 -60
-37 -32 c-20 -17 -59 -44 -85 -58 -43 -24 -60 -27 -165 -30 -126 -3 -182 -17
-239 -61 -18 -14 -33 -20 -33 -15 0 6 23 29 51 51 49 39 71 47 222 83 83 20
142 60 199 132 23 30 43 53 44 52 1 -1 11 -29 23 -62z m1921 26 c86 -28 130
-66 195 -166 57 -89 97 -126 172 -156 l48 -20 -44 6 c-67 9 -136 52 -198 122
-64 73 -147 118 -233 128 -30 4 -57 8 -58 10 -3 3 3 30 24 94 2 7 10 11 17 9
6 -3 41 -15 77 -27z m9 -137 c44 -13 69 -29 135 -93 91 -87 120 -105 203 -125
l58 -14 -56 -1 c-69 -1 -126 18 -188 63 -101 73 -125 81 -247 80 l-112 -1 30
57 29 58 47 -5 c26 -2 71 -11 101 -19z m-1867 -43 l27 -49 -68 -31 c-105 -48
-149 -53 -261 -29 -112 24 -187 20 -251 -12 -32 -17 -40 -19 -30 -7 7 9 38 29
70 44 52 26 65 28 181 28 137 1 176 12 256 76 20 16 40 29 43 29 3 0 18 -22
33 -49z m182 -81 l47 -60 -278 -284 c-152 -157 -279 -283 -282 -280 -2 2 3 12
11 21 12 14 306 443 431 630 12 18 22 33 23 33 1 0 22 -27 48 -60z m1600 -279
c125 -183 225 -335 223 -337 -1 -2 -126 123 -276 277 -245 250 -272 281 -260
297 39 50 83 101 85 99 1 -1 103 -152 228 -336z m-1463 143 l58 -47 -67 -46
c-109 -76 -563 -384 -596 -405 -17 -10 97 108 254 262 157 155 287 281 288
281 2 1 30 -20 63 -45z m1389 -226 c154 -150 278 -274 276 -275 -3 -3 -649
431 -674 452 -2 2 110 94 116 95 2 0 129 -122 282 -272z m-1224 123 c33 -16
78 -34 102 -40 23 -7 42 -17 42 -24 0 -7 3 -22 6 -35 6 -21 4 -22 -22 -16 -47
11 -156 55 -203 82 l-44 26 23 18 c29 23 27 23 96 -11z m814 11 l23 -19 -47
-26 c-51 -29 -155 -72 -200 -83 -25 -6 -28 -5 -23 10 4 10 7 26 7 36 0 14 14
23 53 35 28 8 72 26 97 40 55 29 62 30 90 7z m-838 -170 c-6 -104 -28 -149
-111 -236 -90 -94 -110 -127 -127 -211 l-12 -60 -1 66 c-1 77 11 112 75 206
62 93 78 153 69 259 l-7 84 59 -31 58 -31 -3 -46z m947 -77 c8 -38 6 -67 -7
-125 -25 -110 -22 -214 7 -270 17 -32 19 -41 8 -31 -9 7 -29 38 -44 70 -26 52
-28 65 -29 181 0 140 -11 178 -77 259 l-35 44 51 27 52 28 32 -67 c18 -36 37
-88 42 -116z m-622 155 c25 0 34 -5 38 -22 3 -13 4 -191 3 -396 l-3 -374 -64
344 c-35 188 -70 368 -77 398 -7 30 -11 57 -8 61 2 4 21 3 41 -2 21 -5 53 -9
70 -9z m206 -112 c-13 -68 -25 -132 -27 -143 -2 -11 -25 -130 -50 -265 -26
-135 -48 -252 -50 -260 -2 -8 -4 163 -5 381 l-1 396 73 9 c39 5 75 8 78 7 3
-1 -5 -58 -18 -125z m239 29 c68 -82 81 -119 83 -247 3 -129 17 -182 67 -244
23 -29 26 -36 10 -27 -27 14 -79 81 -97 123 -7 19 -19 66 -26 104 -20 120 -58
180 -167 265 l-34 26 59 20 c32 12 60 22 63 22 3 1 22 -18 42 -42z m-678 21
c22 -6 44 -14 48 -18 14 -11 -42 -157 -76 -196 -18 -20 -70 -62 -117 -93 -86
-57 -138 -117 -159 -185 -9 -28 -9 -27 -5 13 8 64 51 137 113 190 94 81 133
159 141 284 1 20 2 20 55 5z"/>
<path d="M1679 2585 c-237 -58 -436 -246 -519 -491 -31 -91 -34 -110 -34 -224
-1 -102 3 -140 22 -205 76 -261 278 -459 537 -525 106 -27 264 -27 369 0 255
65 462 268 532 520 28 100 26 292 -5 390 -83 269 -284 465 -545 530 -94 24
-270 26 -357 5z m349 -35 c324 -78 546 -357 545 -685 0 -274 -147 -512 -388
-631 -106 -52 -197 -74 -315 -74 -119 0 -210 22 -320 76 -157 78 -288 226
-345 391 -89 257 -27 539 159 728 180 181 424 252 664 195z"/>
<path d="M1443 2194 c-57 -21 -129 -86 -159 -145 l-24 -49 25 0 c14 0 25 5 25
11 0 6 14 30 30 54 82 119 255 139 365 43 66 -58 75 -81 75 -193 0 -93 0 -95
-23 -95 -52 0 -77 -83 -39 -130 44 -54 250 -54 294 0 37 46 14 126 -40 132
l-27 3 0 97 c0 91 2 99 30 139 86 122 259 145 368 49 24 -21 51 -54 62 -74 12
-22 27 -36 38 -36 13 0 17 5 13 16 -3 9 -6 19 -6 24 0 4 -18 31 -39 58 -110
139 -315 150 -434 24 -71 -76 -71 -80 -77 -262 -5 -163 -5 -165 -28 -168 -48
-7 -53 9 -51 175 1 148 0 155 -25 197 -71 121 -222 176 -353 130z m337 -444
c0 -41 -21 -57 -34 -24 -9 24 -8 31 10 48 22 23 24 21 24 -24z m200 -21 c-17
-32 -40 -23 -40 14 0 44 11 53 32 27 13 -17 15 -27 8 -41z"/>
<path d="M1475 2115 c-23 -8 -58 -33 -82 -60 -41 -44 -42 -48 -29 -73 49 -94
167 -136 262 -93 45 21 104 85 104 115 0 29 -79 102 -125 115 -52 14 -81 13
-130 -4z m-21 -80 c-12 -31 -12 -39 0 -70 15 -35 15 -35 -5 -21 -37 25 -51 53
-39 75 8 16 47 51 57 51 1 0 -5 -16 -13 -35z m206 -70 c-18 -19 -36 -32 -39
-30 -2 3 1 11 7 17 15 15 16 84 2 93 -5 3 -10 11 -10 18 0 6 17 -5 37 -25 l37
-38 -34 -35z m-60 63 c13 -25 13 -31 0 -55 -30 -55 -120 -35 -120 25 0 64 88
86 120 30z"/>
<path d="M1512 2028 c-27 -27 -6 -68 35 -68 29 0 48 33 33 60 -12 22 -49 27
-68 8z"/>
<path d="M2092 2105 c-34 -17 -63 -42 -79 -66 l-26 -39 26 -39 c32 -48 113
-91 172 -91 53 0 120 35 159 84 l30 37 -19 37 c-29 53 -90 92 -156 98 -45 5
-63 1 -107 -21z m2 -62 c-18 -35 -18 -51 0 -86 14 -26 14 -27 -5 -17 -33 18
-52 56 -40 79 9 16 48 51 58 51 1 0 -5 -12 -13 -27z m226 -43 c0 -9 -14 -29
-32 -46 -24 -22 -29 -25 -23 -9 14 34 17 92 6 99 -6 4 -11 12 -11 18 0 7 14
-1 30 -17 17 -16 30 -36 30 -45z m-80 28 c13 -25 13 -31 0 -55 -30 -55 -120
-35 -120 25 0 64 88 86 120 30z"/>
<path d="M2152 2028 c-30 -30 0 -75 43 -64 41 11 29 76 -15 76 -9 0 -21 -5
-28 -12z"/>
<path d="M1475 1835 c37 -31 88 -32 134 -4 42 26 36 32 -20 20 -28 -6 -59 -7
-84 -1 -59 14 -63 12 -30 -15z"/>
<path d="M2115 1835 c36 -30 84 -33 126 -8 37 22 37 36 2 26 -33 -8 -90 -8
-130 1 l-28 6 30 -25z"/>
<path d="M1745 1559 c-21 -11 -51 -31 -65 -44 -14 -14 -36 -25 -48 -25 -15 0
-22 -6 -22 -20 0 -13 7 -20 20 -20 11 0 40 -15 64 -34 101 -77 242 -73 353 10
17 13 41 24 52 24 14 0 21 6 21 20 0 15 -7 20 -24 20 -14 0 -38 12 -53 26 -49
45 -83 57 -173 60 -67 2 -93 -2 -125 -17z m232 -45 l28 -19 -72 -3 c-40 -2
-106 -2 -145 0 l-73 3 42 21 c56 27 178 27 220 -2z m-12 -90 c-62 -30 -136
-31 -199 -4 -25 10 -46 22 -46 25 0 3 66 5 148 4 l147 -1 -50 -24z"/>
<path d="M1793 1316 c33 -30 82 -34 127 -11 43 22 37 34 -12 24 -37 -9 -62 -7
-123 7 -16 4 -15 1 8 -20z"/>
</g>
</svg>
