<?xml version="1.0" standalone="no"?>
<!DOCTYPE svg PUBLIC "-//W3C//DTD SVG 20010904//EN"
 "http://www.w3.org/TR/2001/REC-SVG-20010904/DTD/svg10.dtd">
<svg version="1.0" xmlns="http://www.w3.org/2000/svg"
 width="371.000000pt" height="371.000000pt" viewBox="0 0 371.000000 371.000000"
 preserveAspectRatio="xMidYMid meet">

<g transform="translate(0.000000,371.000000) scale(0.100000,-0.100000)"
fill="#000000" stroke="none">
<path d="M1838 3683 c-11 -28 -15 -50 -37 -173 -6 -36 -13 -74 -16 -85 -2 -11
-13 -67 -25 -125 -11 -58 -27 -136 -35 -175 -12 -59 -30 -152 -49 -265 -3 -14
-5 -31 -5 -38 -1 -15 -88 51 -129 97 -32 36 -58 96 -66 156 -15 115 -63 195
-163 269 -33 25 -71 61 -84 81 -35 51 -44 47 -39 -19 1 -15 22 -75 46 -131 51
-119 54 -155 23 -257 -31 -101 -24 -190 23 -280 19 -38 33 -68 31 -68 -2 0
-34 20 -71 45 -37 25 -134 89 -217 144 -82 55 -159 107 -170 115 -48 39 -291
196 -302 196 -7 0 -13 -6 -13 -13 0 -11 155 -249 196 -302 9 -11 61 -89 117
-174 56 -84 121 -181 143 -215 31 -46 39 -63 29 -68 -7 -5 -49 -9 -92 -10 -67
-3 -88 1 -146 26 -37 15 -67 32 -67 38 0 5 -33 24 -72 44 l-73 35 -155 -5
c-85 -2 -157 -8 -160 -13 -7 -13 85 -69 147 -88 91 -29 139 -68 201 -164 30
-47 67 -97 81 -110 31 -29 126 -81 150 -81 9 -1 26 -6 39 -13 21 -12 11 -15
-100 -35 -68 -12 -154 -29 -193 -37 -97 -21 -257 -52 -405 -80 -167 -32 -180
-35 -180 -49 0 -14 52 -28 205 -55 61 -11 117 -22 125 -25 8 -4 78 -17 155
-31 77 -13 169 -30 205 -38 36 -8 88 -18 115 -21 103 -15 100 -11 49 -75 -71
-88 -114 -114 -214 -132 -129 -23 -199 -66 -275 -167 -26 -34 -50 -62 -53 -62
-4 0 -20 -12 -36 -26 -33 -29 -24 -44 22 -37 31 5 39 8 142 54 96 42 153 47
252 20 126 -34 192 -26 306 37 l43 23 -16 -30 c-8 -17 -29 -50 -45 -74 -17
-23 -75 -109 -130 -192 -54 -82 -106 -159 -114 -170 -44 -57 -196 -292 -196
-302 0 -29 7 -24 369 220 31 21 99 65 151 100 52 34 102 67 110 74 8 7 42 30
75 52 72 46 75 44 78 -67 1 -65 -3 -88 -27 -145 -16 -37 -33 -67 -38 -67 -5 0
-25 -33 -44 -72 l-35 -73 5 -155 c3 -85 6 -159 6 -164 0 -15 29 15 54 57 13
23 32 67 42 97 10 30 27 69 38 85 28 40 78 95 88 95 16 0 114 65 142 94 33 35
86 129 86 155 1 9 6 26 14 39 11 21 15 8 39 -125 15 -81 30 -159 33 -173 3
-14 14 -71 24 -128 10 -57 23 -118 29 -135 5 -18 15 -66 22 -107 23 -147 39
-210 54 -210 14 0 29 59 61 235 7 44 20 109 28 144 8 35 17 84 21 107 5 43 10
65 38 204 8 41 21 105 28 142 l12 66 56 -44 c80 -65 131 -142 131 -199 0 -45
42 -161 74 -202 18 -22 54 -58 81 -78 28 -20 69 -58 92 -83 26 -29 43 -41 44
-32 4 43 -7 83 -44 165 -50 112 -56 164 -28 267 12 43 21 99 21 126 0 44 -35
156 -58 186 -31 40 -13 39 51 -5 83 -56 246 -165 327 -217 30 -20 62 -42 70
-50 29 -26 285 -191 298 -192 6 0 12 6 12 13 0 12 -165 266 -193 297 -7 8 -29
40 -49 70 -19 30 -66 102 -104 159 -138 208 -147 222 -137 232 6 6 48 11 94
12 75 1 91 -2 152 -30 37 -18 67 -36 67 -41 0 -5 31 -23 70 -41 l69 -32 153 5
c84 3 157 6 161 6 31 1 -72 70 -133 90 -55 17 -127 55 -157 83 -13 11 -41 51
-63 89 -23 38 -55 82 -71 99 -32 33 -131 89 -158 89 -9 1 -27 7 -40 14 l-24
13 24 6 c13 3 47 9 74 13 28 3 79 13 115 21 36 8 128 25 205 38 77 14 147 27
155 31 8 3 74 16 145 29 126 23 185 39 185 50 0 12 -60 29 -180 50 -69 13
-160 30 -202 39 -136 28 -229 46 -375 73 l-142 26 41 51 c23 28 53 61 67 74
32 29 105 62 136 62 46 0 161 43 206 77 25 19 54 49 64 66 10 18 46 58 79 90
59 56 60 61 6 58 -26 -2 -177 -58 -197 -73 -28 -22 -117 -20 -191 2 -79 24
-196 25 -237 2 -11 -6 -43 -23 -72 -36 l-52 -26 52 78 c28 42 54 79 57 82 3 3
34 48 68 100 67 104 90 138 235 352 96 144 109 168 85 168 -11 0 -260 -160
-293 -187 -5 -5 -84 -58 -173 -118 -90 -61 -189 -127 -220 -148 -31 -20 -61
-36 -67 -34 -16 6 -25 117 -14 175 11 54 37 110 70 147 9 11 29 46 44 78 25
57 26 62 21 210 -3 84 -6 156 -6 160 -1 31 -70 -72 -90 -133 -16 -50 -54 -126
-78 -153 -9 -10 -50 -39 -92 -64 -41 -26 -88 -60 -104 -77 -33 -35 -86 -129
-86 -155 -1 -9 -7 -27 -14 -40 l-14 -25 -5 30 c-4 16 -9 47 -13 69 -3 22 -13
74 -21 115 -28 139 -33 161 -38 204 -4 23 -13 72 -21 107 -8 35 -21 100 -28
144 -32 176 -47 235 -61 235 -3 0 -10 -12 -17 -27z m5 -581 l-6 -401 -46 -6
c-25 -3 -61 -7 -79 -10 -33 -4 -33 -4 -27 33 12 73 27 148 41 213 8 36 23 114
34 175 64 369 74 413 86 401 2 -2 1 -184 -3 -405z m63 251 c22 -127 76 -416
94 -503 15 -72 30 -164 27 -165 -4 -3 -147 12 -151 16 -2 2 -6 184 -10 404 -8
442 -2 481 40 248z m-559 -81 c43 -42 71 -104 88 -193 24 -128 57 -179 169
-267 28 -21 28 -23 11 -36 -10 -7 -40 -19 -67 -26 l-49 -12 -34 38 c-65 75
-78 115 -85 259 -7 138 -18 174 -79 254 -25 33 -25 34 -4 22 13 -6 35 -24 50
-39z m1132 -156 c-12 -28 -56 -104 -69 -116 -15 -15 -49 -92 -61 -137 -10 -43
-10 -64 0 -118 7 -36 11 -69 7 -72 -3 -4 -34 7 -67 23 l-61 29 5 65 c7 91 39
156 120 239 81 83 117 146 125 221 l7 55 3 -79 c2 -47 -2 -92 -9 -110z m-1180
155 c41 -35 61 -110 61 -224 0 -145 17 -196 100 -294 20 -24 9 -40 -38 -61
-27 -12 -53 -22 -59 -22 -6 0 -19 20 -29 45 -9 25 -20 45 -25 45 -15 0 -31
107 -26 171 3 35 12 93 20 129 16 68 14 79 -22 198 -11 38 -11 38 18 13z
m1157 -32 c-10 -73 -35 -116 -118 -201 -40 -41 -78 -82 -85 -90 -20 -27 -43
-107 -43 -153 0 -24 -4 -46 -9 -50 -11 -6 -121 33 -121 44 0 4 4 11 9 17 5 5
16 35 25 67 9 32 24 67 34 79 39 49 80 85 126 112 86 50 176 158 176 211 0 8
3 15 6 15 4 0 4 -23 0 -51z m-1591 -311 c55 -37 132 -89 170 -116 39 -26 120
-82 180 -122 61 -41 116 -80 123 -87 6 -6 21 -15 32 -18 11 -3 20 -12 20 -19
0 -16 -101 -96 -121 -96 -8 0 -140 126 -294 280 -290 290 -299 305 -110 178z
m1869 -178 c-155 -154 -289 -280 -297 -280 -8 0 -26 11 -41 25 -16 14 -39 33
-52 42 -13 8 -24 20 -24 27 1 6 28 29 62 51 106 69 142 93 158 105 8 6 58 40
110 75 52 36 132 91 178 123 77 52 170 109 182 111 3 0 -122 -125 -276 -279z
m-1494 -312 c0 -5 -12 -21 -26 -36 -14 -15 -32 -39 -40 -54 -17 -33 -29 -35
-44 -9 -5 11 -16 26 -22 33 -7 8 -17 21 -23 31 -18 29 -190 282 -196 287 -3 3
-14 20 -24 38 -11 17 -23 32 -27 32 -4 0 -8 4 -8 9 0 6 -20 39 -45 75 -25 37
-45 71 -45 76 0 6 -4 10 -10 10 -5 0 -19 19 -30 43 -15 33 38 -17 260 -242
154 -157 280 -289 280 -293z m1778 550 c-21 -39 -82 -132 -95 -146 -7 -7 -13
-17 -13 -22 0 -5 -10 -20 -22 -34 -13 -14 -43 -57 -67 -95 -24 -39 -48 -71
-52 -71 -5 0 -9 -5 -9 -10 0 -9 -77 -129 -90 -140 -3 -3 -17 -23 -30 -45 -13
-22 -30 -46 -36 -53 -7 -6 -16 -21 -19 -32 -9 -27 -29 -25 -48 4 -9 13 -28 36
-42 52 -14 15 -25 34 -25 42 0 12 546 572 557 572 2 0 -2 -10 -9 -22z m-1368
-277 c0 -34 -11 -44 -65 -61 -22 -7 -60 -23 -84 -36 -52 -29 -92 -31 -114 -6
-13 14 -14 21 -5 30 7 7 17 12 24 12 7 0 14 4 16 9 4 13 176 80 206 80 18 1
22 -4 22 -28z m527 -2 c154 -66 182 -92 121 -113 -22 -8 -38 -4 -82 17 -30 15
-58 27 -61 27 -13 0 -80 34 -87 44 -4 6 -8 22 -8 35 0 21 3 23 35 17 19 -4 56
-16 82 -27z m-172 -64 c48 -9 112 -27 142 -40 29 -14 58 -25 63 -25 5 0 15 -6
22 -12 7 -7 31 -22 53 -33 51 -25 224 -198 250 -250 11 -22 25 -45 31 -52 6
-7 18 -32 25 -57 7 -26 16 -46 20 -46 16 0 42 -172 42 -277 -1 -109 -28 -273
-45 -273 -4 0 -8 -8 -8 -17 -1 -17 -10 -36 -57 -122 -30 -54 -47 -75 -123
-151 -73 -73 -92 -89 -141 -116 -18 -10 -40 -25 -47 -32 -7 -6 -17 -12 -22
-12 -5 0 -33 -11 -62 -24 -103 -47 -306 -67 -428 -42 -112 23 -116 24 -136 34
-11 5 -44 21 -75 36 -177 85 -295 205 -383 388 -42 88 -42 87 -66 227 -16 95
-17 114 -4 200 20 133 28 158 88 281 21 41 65 107 100 147 195 226 463 320
761 268z m-1434 -160 c20 -3 77 -31 126 -63 97 -62 177 -89 234 -78 88 16 109
18 109 10 0 -4 -12 -35 -27 -67 l-28 -59 -65 5 c-93 7 -163 41 -233 115 -32
34 -72 69 -90 79 -18 10 -34 21 -37 24 -7 10 -80 29 -115 30 -26 2 -25 3 10 9
40 7 48 6 116 -5z m-29 -49 c35 -15 73 -45 112 -87 95 -102 142 -127 271 -143
22 -3 41 -5 42 -6 2 0 -14 -53 -28 -91 l-10 -26 -72 26 c-116 43 -161 80 -222
185 -36 63 -98 120 -147 137 -22 7 -41 16 -44 21 -10 16 47 7 98 -16z m2732
-17 c-41 -46 -100 -63 -224 -64 -114 -1 -202 -19 -233 -48 -24 -24 -86 -67
-94 -67 -4 0 -19 24 -32 53 -14 28 -27 55 -29 60 -2 4 4 7 13 7 9 0 46 14 83
32 81 39 152 46 242 22 106 -27 147 -27 220 0 36 14 67 25 69 25 2 1 -4 -9
-15 -20z m36 -9 c-34 -64 -121 -114 -236 -135 -127 -24 -172 -53 -262 -169
-21 -28 -23 -28 -36 -11 -7 10 -19 40 -25 66 l-12 47 38 36 c72 66 113 80 258
87 139 7 186 21 250 74 36 30 39 31 25 5z m-2202 -92 c18 -18 14 -51 -12 -105
-14 -26 -30 -69 -36 -95 -9 -33 -18 -48 -33 -52 -40 -11 -57 -7 -57 13 0 23
67 203 79 211 4 3 10 13 14 23 7 20 28 22 45 5z m1542 -24 c0 -7 6 -19 13 -26
14 -13 61 -131 73 -180 7 -31 -5 -35 -49 -19 -17 7 -27 20 -32 43 -4 18 -20
63 -37 100 -30 65 -30 68 -14 93 14 21 20 24 32 14 8 -6 14 -17 14 -25z
m-1627 -311 c-2 -27 -6 -63 -9 -80 l-5 -33 -187 0 c-103 0 -286 -3 -407 -6
-180 -4 -216 -3 -200 7 11 7 76 23 145 35 115 21 295 54 480 91 91 17 161 30
176 32 8 1 10 -15 7 -46z m1787 26 c30 -6 84 -17 121 -25 36 -8 114 -23 175
-34 320 -57 371 -67 389 -79 16 -10 -20 -11 -200 -7 -121 3 -304 6 -407 6
-214 0 -193 -11 -201 103 l-4 57 36 -6 c20 -3 61 -10 91 -15z m-1802 -174 c3
-3 20 -149 18 -151 -2 -3 -459 82 -571 105 -22 5 -71 14 -110 20 -109 18 -125
22 -125 32 0 8 778 2 788 -6z m2485 4 c-12 -12 -46 -19 -193 -44 -47 -8 -155
-28 -240 -44 -137 -26 -268 -51 -352 -65 l-26 -5 4 57 c10 114 -20 101 257
105 133 1 314 3 402 5 117 1 156 -1 148 -9z m-2468 -197 c13 -9 35 -49 35 -62
0 -6 14 -40 32 -76 26 -53 30 -70 22 -92 -15 -43 -36 -37 -67 18 -29 51 -65
145 -74 193 -5 23 -2 27 18 27 13 0 29 -4 34 -8z m1710 -23 c-15 -69 -92 -231
-110 -231 -5 -1 -16 10 -24 24 -13 23 -12 30 12 76 14 28 32 71 38 97 12 47
30 63 72 64 16 1 17 -4 12 -30z m-1797 -11 c6 -13 17 -43 23 -67 11 -38 11
-44 -4 -53 -10 -5 -26 -18 -37 -30 -19 -21 -45 -38 -90 -59 -14 -6 -83 -15
-155 -19 -139 -8 -184 -22 -253 -77 -27 -21 -31 -23 -25 -7 11 31 74 84 128
109 28 13 82 28 122 34 93 14 154 50 218 128 27 34 53 62 56 62 3 1 11 -9 17
-21z m1866 13 c3 -4 33 -16 67 -26 34 -9 68 -22 77 -28 43 -35 92 -88 107
-118 44 -86 106 -141 215 -188 21 -10 16 -10 -27 -6 -79 8 -112 27 -200 112
-44 43 -87 83 -95 90 -27 20 -107 43 -153 43 -52 0 -58 7 -44 51 22 70 39 93
53 70z m103 -172 c29 -14 83 -54 125 -95 80 -76 135 -108 213 -122 l50 -10
-78 -1 c-66 -1 -87 3 -132 25 -30 15 -62 34 -72 43 -21 19 -94 55 -144 70 -45
14 -69 14 -141 -1 -31 -7 -60 -10 -62 -7 -3 3 9 33 27 68 l32 63 65 -5 c38 -3
86 -14 117 -28z m-1894 -34 l27 -56 -47 -20 c-27 -11 -61 -27 -78 -35 -52 -27
-123 -28 -206 -5 -99 28 -155 27 -231 -4 -57 -23 -60 -23 -42 -4 42 47 126 68
259 66 89 -1 106 2 155 25 30 14 71 40 90 56 19 17 37 31 40 32 3 0 18 -25 33
-55z m160 -49 c9 -13 28 -36 42 -52 14 -15 25 -33 25 -41 0 -8 -126 -142 -280
-297 -241 -241 -276 -274 -254 -231 14 28 51 87 82 132 31 44 88 128 127 185
38 56 72 105 75 108 4 3 17 23 30 45 21 35 46 70 80 112 6 7 15 24 22 38 14
31 31 32 51 1z m1412 4 c3 -11 12 -26 18 -33 22 -24 57 -76 57 -86 0 -5 4 -11
8 -13 4 -1 21 -23 38 -48 17 -25 60 -89 97 -143 37 -54 67 -102 67 -107 0 -6
4 -10 10 -10 5 0 17 -14 26 -32 9 -18 23 -38 30 -46 8 -7 14 -17 14 -21 0 -4
9 -16 19 -28 11 -11 29 -40 40 -64 17 -36 -30 7 -259 237 -154 155 -280 289
-280 298 0 10 14 31 30 48 17 16 35 38 40 49 14 25 37 24 45 -1z m-1261 -170
c26 -22 52 -40 57 -40 5 0 9 -4 9 -8 0 -8 -29 -29 -125 -92 -58 -39 -171 -115
-175 -120 -3 -3 -72 -50 -155 -105 -82 -55 -152 -103 -155 -106 -3 -4 -23 -16
-45 -28 -27 -15 52 69 244 259 156 154 287 280 290 280 4 0 28 -18 55 -40z
m1410 -240 c230 -229 273 -276 237 -259 -24 11 -53 29 -64 40 -11 10 -29 21
-39 25 -10 3 -18 9 -18 12 0 4 -16 16 -35 26 -19 11 -35 23 -35 28 0 4 -4 8
-10 8 -5 0 -53 30 -107 67 -54 37 -138 94 -188 127 -49 33 -96 66 -103 73 -6
6 -21 15 -33 18 -11 4 -19 13 -17 20 4 18 99 95 117 95 7 0 140 -126 295 -280z
m-1250 141 c17 -10 58 -27 91 -37 33 -10 63 -23 67 -29 14 -19 9 -65 -7 -65
-20 0 -139 45 -202 78 -55 27 -65 44 -35 61 26 15 51 13 86 -8z m825 2 l24
-16 -23 -19 c-12 -10 -28 -18 -35 -18 -7 0 -15 -4 -17 -8 -4 -10 -163 -72
-184 -72 -16 0 -18 18 -5 53 7 17 22 27 53 35 24 7 66 23 93 36 61 30 65 30
94 9z m-885 -88 l58 -30 -5 -65 c-6 -92 -41 -163 -113 -231 -93 -87 -134 -162
-134 -243 0 -16 -3 -27 -6 -23 -10 10 -6 141 6 172 6 17 34 65 62 107 71 109
84 171 63 302 -5 28 -4 47 1 45 5 -3 35 -18 68 -34z m947 -22 c11 -27 27 -61
35 -78 27 -52 28 -123 5 -206 -28 -99 -27 -155 4 -231 l25 -62 -24 23 c-42 39
-67 141 -62 250 4 84 1 101 -20 149 -13 31 -41 75 -60 99 -20 24 -34 47 -30
50 7 8 89 51 99 52 4 1 17 -20 28 -46z m-553 21 c22 -4 22 -5 22 -202 0 -108
3 -289 6 -402 5 -181 4 -203 -9 -187 -8 10 -18 44 -23 75 -4 31 -8 59 -9 62 0
3 -4 28 -9 55 -4 28 -11 66 -16 85 -5 19 -14 64 -20 100 -6 36 -20 106 -30
155 -19 93 -34 174 -44 236 l-6 36 57 -4 c32 -2 68 -6 81 -9z m207 -6 c-2 -13
-9 -50 -15 -83 -5 -33 -13 -71 -16 -85 -3 -14 -14 -74 -25 -135 -11 -60 -24
-130 -29 -155 -5 -25 -19 -99 -30 -165 -29 -164 -29 -165 -41 -165 -9 0 -2
778 7 789 2 3 34 8 72 11 37 4 70 8 75 9 4 0 5 -9 2 -21z m-422 -69 c18 -8 24
-15 19 -23 -5 -6 -14 -32 -21 -57 -25 -90 -108 -194 -172 -214 -48 -16 -123
-93 -154 -160 -22 -47 -23 -48 -24 -20 -1 52 42 126 111 190 35 33 77 78 91
101 26 39 61 169 51 186 -18 28 25 27 99 -3z m641 -6 c65 -71 79 -113 87 -263
7 -143 14 -163 78 -250 23 -31 23 -32 3 -21 -68 36 -115 118 -138 237 -23 127
-52 171 -169 262 -29 23 -29 24 -10 35 22 13 83 34 102 36 7 1 28 -16 47 -36z"/>
<path d="M1715 2585 c-78 -14 -177 -55 -245 -99 -25 -17 -47 -33 -50 -36 -3
-3 -19 -16 -36 -28 -44 -30 -134 -146 -170 -217 -66 -129 -79 -186 -79 -345 1
-161 12 -207 81 -343 42 -81 50 -92 134 -177 130 -133 296 -206 487 -217 162
-9 304 28 436 115 114 75 227 203 266 302 8 19 18 40 22 45 18 26 40 168 40
259 0 95 -19 224 -40 263 -5 10 -23 47 -40 83 -17 36 -46 83 -63 105 -188 235
-462 342 -743 290z m323 -31 c23 -8 48 -14 55 -14 22 0 156 -69 200 -102 124
-96 208 -214 258 -363 20 -60 23 -90 23 -210 1 -121 -3 -149 -23 -210 -84
-249 -260 -416 -505 -481 -84 -23 -270 -22 -356 0 -358 94 -580 441 -520 813
49 307 299 545 615 583 77 10 198 2 253 -16z"/>
<path d="M1480 2201 c-85 -28 -167 -97 -196 -166 -22 -55 7 -46 36 11 25 48
77 96 126 115 39 15 162 14 200 -3 44 -19 88 -58 118 -106 23 -37 26 -51 26
-137 0 -89 -1 -95 -20 -95 -29 0 -70 -44 -70 -73 0 -55 65 -90 165 -90 60 0
127 19 142 39 32 44 2 124 -47 124 -19 0 -20 7 -20 95 0 75 4 104 19 133 34
65 91 107 169 122 111 21 216 -25 272 -117 32 -52 50 -66 50 -40 0 8 -14 35
-31 61 -116 175 -353 175 -476 1 -28 -39 -28 -42 -31 -208 -3 -152 -5 -168
-22 -177 -11 -6 -31 -8 -45 -4 l-25 6 0 145 c0 82 -5 163 -12 184 -15 50 -80
121 -142 154 -51 27 -143 40 -186 26z m310 -457 c0 -41 -2 -45 -22 -42 -40 5
-38 88 2 88 17 0 20 -6 20 -46z m178 34 c16 -16 15 -65 -2 -71 -20 -8 -26 2
-26 45 0 39 8 46 28 26z"/>
<path d="M1472 2109 c-61 -24 -114 -90 -102 -124 14 -37 71 -83 124 -99 51
-16 55 -16 107 4 30 11 59 23 64 28 22 15 55 65 55 83 0 23 -68 95 -103 108
-34 13 -113 13 -145 0z m-6 -61 c-18 -25 -22 -88 -6 -88 6 0 10 -7 10 -15 0
-8 -3 -15 -7 -15 -12 0 -73 60 -73 70 0 16 58 70 75 70 15 0 15 -2 1 -22z
m124 2 c23 -23 26 -68 6 -95 -16 -22 -76 -26 -100 -6 -21 18 -21 79 1 103 21
24 68 23 93 -2z m72 -7 c35 -34 35 -55 1 -88 -39 -35 -73 -34 -38 1 19 19 19
51 1 87 -19 36 -1 36 36 0z"/>
<path d="M1517 2023 c-13 -12 -7 -51 9 -57 22 -8 54 11 54 33 0 25 -45 42 -63
24z"/>
<path d="M2105 2105 c-38 -18 -79 -54 -94 -82 -23 -44 35 -108 124 -138 52
-18 53 -18 108 4 60 25 117 78 117 111 0 24 -70 97 -106 110 -37 14 -114 11
-149 -5z m-10 -65 c-19 -37 -19 -55 2 -87 17 -26 17 -26 -5 -14 -36 19 -55 56
-43 80 9 17 48 51 58 51 2 0 -3 -13 -12 -30z m116 20 c4 0 16 -14 24 -30 13
-26 14 -35 3 -58 -16 -33 -75 -43 -102 -17 -17 17 -21 62 -8 81 12 17 46 34
60 29 8 -3 18 -5 23 -5z m112 -69 c-6 -17 -43 -50 -56 -51 -4 0 -3 10 4 21 11
21 9 56 -6 94 -6 14 2 10 28 -14 23 -21 33 -39 30 -50z"/>
<path d="M2156 2024 c-19 -19 -20 -25 -3 -48 19 -26 61 -18 65 13 3 15 -3 30
-14 38 -23 17 -29 16 -48 -3z"/>
<path d="M1487 1831 c19 -19 89 -19 107 -1 14 13 7 15 -53 15 -57 0 -65 -2
-54 -14z"/>
<path d="M1744 1551 c-21 -10 -50 -30 -63 -45 -14 -14 -35 -26 -48 -26 -14 0
-23 -6 -23 -15 0 -9 9 -15 23 -15 20 0 63 -22 77 -40 15 -18 98 -40 154 -40
68 0 120 17 171 56 18 13 42 24 53 24 13 0 22 6 22 15 0 8 -9 15 -19 15 -10 0
-34 14 -52 31 -46 43 -71 51 -170 55 -65 2 -94 -2 -125 -15z m232 -36 l36 -22
-113 -6 c-202 -12 -223 -8 -157 32 47 29 183 27 234 -4z m29 -73 c-6 -5 -34
-19 -64 -31 -44 -19 -64 -22 -108 -16 -46 6 -123 38 -123 51 0 2 68 4 152 4
84 0 148 -4 143 -8z"/>
<path d="M1790 1323 c0 -6 61 -33 74 -33 9 0 28 8 44 18 l29 17 -73 0 c-41 0
-74 -1 -74 -2z"/>
</g>
</svg>
