<?xml version="1.0" standalone="no"?>
<!DOCTYPE svg PUBLIC "-//W3C//DTD SVG 20010904//EN"
 "http://www.w3.org/TR/2001/REC-SVG-20010904/DTD/svg10.dtd">
<svg version="1.0" xmlns="http://www.w3.org/2000/svg"
 width="371.000000pt" height="371.000000pt" viewBox="0 0 371.000000 371.000000"
 preserveAspectRatio="xMidYMid meet">
<metadata>
Created by potrace 1.11, written by Peter Selinger 2001-2013
</metadata>
<g transform="translate(0.000000,371.000000) scale(0.100000,-0.100000)"
fill="#000000" stroke="none">
<path d="M1838 3683 c-11 -28 -15 -50 -37 -173 -6 -36 -13 -74 -16 -85 -2 -11
-13 -67 -25 -125 -11 -58 -27 -136 -35 -175 -12 -59 -30 -152 -49 -265 -3 -14
-5 -31 -5 -38 -1 -15 -88 51 -129 97 -32 36 -58 96 -66 156 -15 115 -63 195
-163 269 -33 25 -71 61 -84 81 -35 51 -44 47 -39 -19 1 -15 22 -75 46 -131 51
-119 54 -155 23 -257 -30 -97 -23 -189 20 -277 18 -35 31 -65 29 -66 -2 -2
-31 16 -64 39 -34 22 -131 87 -215 143 -85 56 -163 109 -174 117 -48 39 -291
196 -302 196 -7 0 -13 -6 -13 -13 0 -11 155 -249 196 -302 9 -11 61 -89 117
-174 56 -84 121 -181 143 -215 31 -46 39 -63 29 -68 -7 -5 -49 -9 -92 -10 -67
-3 -88 1 -146 26 -37 15 -67 32 -67 38 0 5 -33 24 -72 44 l-73 35 -155 -5
c-85 -2 -157 -8 -160 -13 -7 -13 85 -69 147 -88 91 -29 139 -68 201 -164 30
-47 67 -97 81 -110 31 -29 126 -81 150 -81 9 -1 26 -6 39 -13 21 -12 11 -15
-100 -35 -68 -12 -154 -29 -193 -37 -97 -21 -257 -52 -405 -80 -167 -32 -180
-35 -180 -49 0 -14 52 -28 205 -55 61 -11 117 -22 125 -25 8 -4 78 -17 155
-31 77 -13 169 -30 205 -38 36 -8 88 -18 115 -21 103 -15 100 -11 49 -75 -71
-88 -114 -114 -214 -132 -129 -23 -199 -66 -275 -167 -26 -34 -50 -62 -53 -62
-4 0 -20 -12 -36 -26 -33 -29 -24 -44 22 -37 31 5 39 8 142 54 96 42 153 47
252 20 126 -34 192 -26 306 37 l43 23 -16 -30 c-8 -17 -29 -50 -45 -74 -17
-23 -75 -109 -130 -192 -54 -82 -106 -159 -114 -170 -44 -57 -196 -292 -196
-302 0 -29 7 -24 369 220 31 21 99 65 151 100 52 34 102 67 110 74 8 7 42 30
75 52 72 46 75 44 78 -67 1 -65 -3 -88 -27 -145 -16 -37 -33 -67 -38 -67 -5 0
-25 -33 -44 -72 l-35 -73 5 -155 c3 -85 6 -159 6 -164 0 -15 29 15 54 57 13
23 32 67 42 97 10 30 27 69 38 85 28 40 78 95 88 95 16 0 114 65 142 94 33 35
86 129 86 155 1 9 6 26 14 39 11 21 15 8 39 -125 15 -81 30 -159 33 -173 3
-14 14 -71 24 -128 10 -57 23 -118 29 -135 5 -18 15 -66 22 -107 23 -147 39
-210 54 -210 14 0 29 59 61 235 7 44 20 109 28 144 8 35 17 84 21 107 5 43 10
65 38 204 8 41 21 105 28 142 l12 66 56 -44 c80 -65 131 -142 131 -199 0 -45
42 -161 74 -202 18 -22 54 -58 81 -78 28 -20 69 -58 92 -83 26 -29 43 -41 44
-32 4 43 -7 83 -44 165 -50 112 -56 164 -28 267 12 43 21 99 21 126 0 46 -36
158 -61 188 -27 33 1 28 57 -10 92 -62 262 -174 324 -214 30 -20 62 -42 70
-50 29 -26 285 -191 298 -192 6 0 12 6 12 13 0 12 -165 266 -193 297 -7 8 -29
40 -49 70 -19 30 -66 102 -104 159 -138 208 -147 222 -137 232 6 6 48 11 94
12 75 1 91 -2 152 -30 37 -18 67 -36 67 -41 0 -5 31 -23 70 -41 l69 -32 153 5
c84 3 157 6 161 6 31 1 -72 70 -133 90 -55 17 -127 55 -157 83 -13 11 -41 51
-63 89 -23 38 -55 82 -71 99 -32 33 -131 89 -158 89 -9 1 -27 7 -40 14 l-24
13 24 6 c13 3 47 9 74 13 28 3 79 13 115 21 36 8 128 25 205 38 77 14 147 27
155 31 8 3 74 16 145 29 126 23 185 39 185 50 0 12 -60 29 -180 50 -69 13
-160 30 -202 39 -136 28 -229 46 -375 73 l-142 26 41 51 c23 28 53 61 67 74
32 29 105 62 136 62 46 0 161 43 206 77 25 19 54 49 64 66 10 18 46 58 79 90
59 56 60 61 6 58 -26 -2 -177 -58 -197 -73 -28 -22 -117 -20 -191 2 -101 31
-192 25 -281 -19 -35 -18 -65 -31 -66 -29 -3 3 66 112 88 138 7 8 40 58 74
110 69 106 95 143 236 352 96 144 109 168 85 168 -11 0 -260 -160 -293 -187
-5 -5 -84 -58 -173 -118 -90 -61 -189 -127 -220 -148 -31 -20 -61 -36 -67 -34
-16 6 -25 117 -14 175 11 54 37 110 70 147 9 11 29 46 44 78 25 57 26 62 21
210 -3 84 -6 156 -6 160 -1 31 -70 -72 -90 -133 -16 -50 -54 -126 -78 -153 -9
-10 -50 -39 -92 -64 -41 -26 -88 -60 -104 -77 -33 -35 -86 -129 -86 -155 -1
-9 -7 -27 -14 -40 l-14 -25 -5 30 c-4 16 -9 47 -13 69 -3 22 -13 74 -21 115
-28 139 -33 161 -38 204 -4 23 -13 72 -21 107 -8 35 -21 100 -28 144 -32 176
-47 235 -61 235 -3 0 -10 -12 -17 -27z m5 -586 l-6 -396 -46 -6 c-25 -3 -61
-7 -79 -10 -33 -4 -33 -4 -27 33 12 72 27 148 41 212 7 36 23 115 34 175 12
61 25 130 30 155 5 25 14 79 20 120 11 74 27 127 35 118 3 -2 2 -183 -2 -401z
m41 371 c3 -13 14 -75 25 -138 11 -63 34 -187 51 -275 17 -88 35 -182 40 -210
5 -27 13 -74 19 -104 6 -30 10 -55 9 -56 -5 -3 -148 12 -152 16 -9 11 -16 789
-7 789 6 0 13 -10 15 -22z m-538 -295 c12 -42 15 -75 10 -133 -4 -44 -3 -87 3
-101 5 -13 12 -36 15 -51 3 -14 26 -57 51 -94 25 -36 45 -69 45 -73 0 -7 -109
-55 -114 -50 -2 2 -18 35 -36 73 -43 93 -48 155 -21 282 l21 101 -20 71 c-25
90 -25 93 5 59 14 -15 32 -53 41 -84z m1103 36 c-14 -62 -24 -76 -120 -175
-92 -96 -119 -148 -119 -233 0 -59 -9 -63 -69 -41 -63 23 -67 26 -53 42 5 7
15 33 22 58 24 92 74 150 193 220 42 25 70 52 98 94 21 32 39 62 39 67 0 5 4
9 9 9 5 0 5 -17 0 -41z m-1680 -220 c11 -10 23 -19 26 -19 6 0 65 -40 75 -50
3 -3 37 -26 75 -50 39 -25 76 -50 83 -57 7 -7 17 -13 21 -13 4 0 16 -8 27 -17
10 -10 86 -63 167 -117 131 -88 164 -116 140 -116 -5 0 -28 -18 -53 -40 -25
-22 -50 -40 -55 -40 -6 0 -136 124 -290 274 -154 151 -270 272 -258 270 12 -3
30 -14 42 -25z m2025 -177 c-115 -114 -242 -238 -282 -276 l-72 -69 -57 44
c-32 24 -60 45 -63 47 -8 6 15 23 185 135 61 39 119 80 129 89 11 10 23 18 27
18 4 0 14 6 21 13 20 18 280 193 298 200 8 3 17 6 20 6 3 0 -90 -93 -206 -207z
m-1144 -94 c0 -13 -4 -27 -8 -33 -9 -13 -49 -35 -63 -35 -6 0 -41 -14 -76 -32
-52 -25 -69 -30 -91 -22 -63 22 -19 60 139 119 83 31 99 31 99 3z m495 2 c6
-4 21 -11 35 -15 40 -12 150 -67 150 -76 0 -12 -30 -39 -43 -39 -7 0 -46 14
-87 32 -41 17 -87 36 -102 42 -25 10 -38 31 -38 65 0 10 9 12 38 6 20 -4 42
-10 47 -15z m-95 -85 c36 -9 84 -25 107 -36 24 -10 47 -19 52 -19 5 0 16 -6
23 -13 7 -6 30 -21 51 -32 21 -11 62 -41 91 -67 51 -45 75 -92 82 -156 3 -20
-1 -18 -25 15 -39 52 -84 93 -161 145 -195 133 -469 163 -679 76 -65 -27 -155
-79 -171 -98 -3 -3 -19 -16 -36 -28 -17 -12 -56 -52 -86 -89 -100 -125 -154
-261 -167 -418 -10 -111 -1 -186 31 -285 52 -159 158 -295 307 -394 105 -70
263 -116 399 -116 49 0 52 -1 42 -20 -18 -34 -74 -53 -133 -46 -63 8 -178 36
-192 46 -5 4 -27 13 -47 19 -81 26 -278 182 -325 256 -106 168 -135 240 -156
389 -13 89 -12 109 4 205 9 58 20 115 24 126 17 48 47 112 89 192 27 52 155
182 229 234 85 59 192 104 294 124 95 18 259 13 353 -10z m-12 -81 c23 -8 48
-14 54 -14 20 0 163 -73 203 -104 82 -63 162 -157 163 -191 0 -30 -29 -135
-40 -141 -5 -4 -22 5 -36 19 -46 45 -121 78 -187 84 -55 5 -69 2 -116 -21 -67
-33 -100 -60 -136 -111 -28 -39 -28 -42 -31 -208 -3 -165 -4 -168 -27 -177
-12 -5 -32 -6 -44 -3 -20 5 -21 11 -21 151 0 83 -5 162 -12 184 -15 52 -91
130 -154 160 -105 50 -232 21 -317 -71 -45 -49 -75 -111 -54 -111 8 0 24 21
37 46 25 48 77 96 126 115 65 26 204 10 242 -28 7 -7 21 -18 31 -25 10 -7 30
-32 44 -55 24 -38 27 -52 27 -138 0 -92 -1 -95 -22 -95 -29 0 -42 -9 -57 -37
-39 -75 23 -122 167 -128 54 -2 72 -13 72 -45 0 -8 -4 -20 -8 -26 -10 -16 -83
-27 -112 -16 -31 12 -102 -17 -145 -59 -17 -16 -41 -29 -53 -29 -13 0 -22 -6
-22 -15 0 -9 9 -15 23 -15 19 0 61 -21 77 -40 15 -17 73 -34 135 -39 l70 -6
-39 -23 c-25 -15 -48 -21 -63 -17 -34 8 -29 2 30 -35 62 -40 96 -77 97 -106 0
-29 -33 -37 -124 -29 -381 35 -656 333 -656 710 0 417 341 734 760 708 41 -3
94 -11 118 -19z m-1442 -74 c11 0 112 -65 124 -79 17 -21 134 -61 177 -61 17
0 54 5 82 12 28 6 53 9 57 6 3 -3 -8 -33 -25 -67 l-31 -60 -67 6 c-37 3 -78
12 -93 20 -14 7 -30 13 -37 13 -7 0 -48 35 -91 78 -86 84 -143 118 -218 129
l-49 8 40 5 c22 3 58 2 80 -2 22 -4 45 -7 51 -8z m2390 -61 c32 -7 63 -16 69
-20 17 -16 109 -9 163 11 59 22 69 9 16 -20 -47 -27 -122 -39 -224 -37 -108 2
-159 -15 -237 -79 -41 -34 -63 -37 -63 -10 0 7 -11 30 -25 50 -23 33 -23 37
-7 42 9 4 41 17 70 31 97 46 137 51 238 32z m-1872 -121 c8 -22 3 -39 -22 -91
-18 -35 -32 -70 -32 -76 0 -14 -22 -54 -35 -63 -5 -4 -21 -8 -34 -8 -20 0 -23
4 -18 28 9 44 42 134 72 190 30 58 53 65 69 20z m-89 -300 c-3 -18 -7 -54 -10
-80 l-6 -48 -188 0 c-103 0 -284 -3 -402 -6 -174 -5 -212 -4 -202 6 7 7 49 19
95 26 46 7 106 18 133 23 118 24 506 98 577 110 4 0 5 -14 3 -31z m1770 12
c39 -6 111 -20 160 -30 50 -10 119 -24 155 -30 36 -6 81 -15 100 -20 59 -15
142 -29 202 -36 32 -4 66 -13 75 -21 16 -13 -9 -14 -196 -9 -118 3 -299 6
-402 6 -215 0 -194 -11 -202 102 -3 54 -2 57 17 53 12 -2 53 -9 91 -15z m-480
-192 c-116 -126 -125 -134 -135 -118 -5 8 -40 56 -79 105 -74 93 -76 114 -9
81 42 -22 122 -20 183 3 49 19 50 19 69 1 19 -19 19 -20 -29 -72z m-530 -73
c0 -45 -20 -57 -36 -22 -8 18 -8 30 1 46 17 32 35 20 35 -24z m-770 -101 c12
-3 25 -17 31 -32 6 -15 25 -61 42 -102 18 -41 32 -80 32 -87 0 -13 -27 -43
-39 -43 -16 0 -111 222 -111 260 0 11 15 12 45 4z m-60 -89 l17 -48 -33 -30
c-19 -16 -56 -43 -83 -60 -46 -29 -57 -31 -185 -37 -142 -7 -168 -14 -238 -67
-44 -32 -42 -12 2 29 59 53 113 78 209 94 50 9 93 19 96 22 3 4 21 16 40 26
35 20 48 33 109 106 38 46 39 45 66 -35z m1851 66 c5 -5 34 -17 64 -26 100
-33 130 -61 220 -202 22 -35 43 -63 48 -63 4 0 17 -8 28 -18 11 -10 42 -27 69
-38 64 -24 34 -31 -41 -9 -48 14 -71 30 -155 110 -103 99 -152 125 -238 125
-59 0 -63 9 -41 70 11 30 20 56 20 57 0 6 17 2 26 -6z m-958 -108 l14 -23 -72
0 -73 0 27 24 c35 30 83 29 104 -1z m52 -88 c0 -24 -3 -25 -52 -25 -36 1 -67
9 -98 25 l-45 24 98 1 c97 0 97 0 97 -25z m-701 -96 l44 -61 -65 -66 c-421
-431 -499 -506 -468 -452 29 49 61 97 82 125 5 6 19 26 31 45 45 68 111 165
117 170 3 3 10 12 15 22 20 32 134 203 143 213 5 6 17 23 26 38 10 15 21 27
25 26 3 0 26 -27 50 -60z m1457 -70 c49 -72 94 -138 99 -147 6 -9 13 -19 16
-22 3 -3 27 -39 54 -80 28 -41 52 -77 55 -80 14 -14 109 -160 124 -190 11 -23
-81 65 -258 244 -152 154 -276 283 -276 287 0 4 18 29 40 55 22 27 40 52 40
56 0 25 27 -6 106 -123z m-1183 -156 c18 -9 61 -26 97 -38 57 -20 66 -27 74
-54 5 -17 6 -34 3 -38 -13 -13 -267 88 -267 106 1 17 27 38 53 40 4 1 22 -7
40 -16z m-53 -93 l60 -30 -7 -63 c-9 -90 -42 -156 -111 -224 -79 -78 -110
-128 -126 -204 l-13 -64 -4 43 c-7 67 14 146 51 199 19 27 36 50 40 53 9 9 29
54 46 105 16 48 15 86 -2 183 -4 17 -3 32 0 32 4 0 33 -14 66 -30z m396 5 c20
-5 21 -10 27 -397 4 -215 4 -394 2 -397 -11 -10 -19 13 -31 91 -7 46 -18 106
-23 133 -25 121 -60 306 -76 395 -8 41 -19 99 -24 129 -6 29 -11 55 -11 56 0
3 113 -6 136 -10z m418 -77 c17 -18 45 -55 60 -83 27 -46 30 -60 36 -185 7
-141 14 -167 67 -237 33 -45 15 -42 -28 5 -56 58 -77 105 -94 203 -17 97 -45
155 -97 199 -16 14 -45 39 -64 57 l-35 31 53 21 c29 11 57 20 62 20 5 1 23
-14 40 -31z"/>
<path d="M1472 2109 c-61 -24 -114 -90 -102 -124 14 -37 71 -83 126 -100 58
-18 73 -16 150 22 33 17 74 69 74 95 0 23 -69 94 -103 107 -34 13 -113 13
-145 0z m-5 -57 c-20 -22 -23 -98 -4 -105 6 -2 9 -8 5 -12 -10 -10 -68 50 -68
71 0 21 45 64 67 64 15 0 15 -2 0 -18z m126 -14 c21 -25 22 -47 1 -76 -31 -45
-114 -18 -114 38 0 65 69 88 113 38z m67 2 c17 -17 30 -35 30 -40 0 -12 -60
-70 -72 -70 -5 0 -2 8 7 17 20 20 16 100 -6 114 -11 7 -11 9 -1 9 7 0 26 -14
42 -30z"/>
<path d="M1515 2026 c-17 -12 -18 -18 -7 -40 19 -42 72 -32 72 14 0 16 -7 30
-16 34 -22 9 -28 8 -49 -8z"/>
<path d="M1487 1831 c19 -19 89 -19 107 -1 14 13 7 15 -53 15 -57 0 -65 -2
-54 -14z"/>
</g>
</svg>
